#!OML:ASF H:\Dans Jumps\Project 1\Capture day 1\Session 1\subject.ASF
:FULLY-SPECIFIED
:DEGREES
558
root 0.423137 17.6528 -6.5822 12.2023 -0.687833 -1.99871
lowerback 5.51986 0.650642 -0.0327929
upperback 5.29368 0.842807 1.2804
thorax 2.33801 0.395324 1.307
lowerneck -13.232 -0.224308 -1.0189
upperneck 29.5968 -0.469062 1.36366
head 11.8853 -0.149333 0.62077
rclavicle -1.2424e-015 1.19271e-015
rhumerus -31.1972 0.707508 -85.5613
rradius 57.8937
rwrist 19.8289
rhand -27.7935 -25.6007
rfingers 7.12502
rthumb -1.18647 -55.5772
lclavicle -1.2424e-015 1.19271e-015
lhumerus -33.5549 -7.98745 88.289
lradius 53.5888
lwrist 22.2911
lhand -30.1119 -9.49968
lfingers 7.12502
lthumb -3.42547 20.4525
rfemur -26.437 -2.43361 19.7211
rtibia 27.3569
rfoot -12.1108 1.92907
rtoes 14.3776
lfemur -25.395 7.12028 -18.5748
ltibia 26.2299
lfoot -10.5365 5.31876
ltoes 5.62867
559
root 0.424143 17.655 -6.57477 12.1424 -0.710864 -1.99796
lowerback 5.46644 0.652832 -0.0267781
upperback 5.27621 0.845968 1.2671
thorax 2.34977 0.397357 1.2903
lowerneck -13.1892 -0.221886 -1.01515
upperneck 29.628 -0.470853 1.37525
head 11.8889 -0.148432 0.624341
rclavicle -5.86415e-015 -7.95139e-016
rhumerus -31.0822 0.137429 -85.427
rradius 56.2084
rwrist 20.2307
rhand -27.1521 -25.4876
rfingers 7.12502
rthumb -0.56698 -55.4666
lclavicle -5.86415e-015 -7.95139e-016
lhumerus -33.2434 -7.26232 88.1005
lradius 51.6527
lwrist 22.2742
lhand -30.233 -9.6558
lfingers 7.12502
lthumb -3.5425 20.2945
rfemur -26.2992 -2.40208 19.7083
rtibia 27.2748
rfoot -12.1045 1.91084
rtoes 14.3623
lfemur -25.2397 7.14604 -18.5693
ltibia 26.1254
lfoot -10.5387 5.29985
ltoes 5.64883
560
root 0.425121 17.6568 -6.56763 12.0842 -0.727692 -2.00023
lowerback 5.41594 0.652922 -0.01384
upperback 5.25804 0.846588 1.25446
thorax 2.35933 0.398333 1.27046
lowerneck -13.1545 -0.217955 -1.00942
upperneck 29.6572 -0.470089 1.38416
head 11.8933 -0.146484 0.62692
rclavicle 5.41688e-015 7.55382e-015
rhumerus -30.9828 -0.430928 -85.2812
rradius 54.5334
rwrist 20.6045
rhand -26.52 -25.3991
rfingers 7.12502
rthumb 0.0435077 -55.3788
lclavicle 5.41688e-015 7.55382e-015
lhumerus -32.9527 -6.53882 87.9011
lradius 49.7395
lwrist 22.2857
lhand -30.3653 -9.67491
lfingers 7.12502
lthumb -3.67021 20.2732
rfemur -26.1672 -2.37146 19.6991
rtibia 27.1987
rfoot -12.1032 1.88817
rtoes 14.3397
lfemur -25.0951 7.16613 -18.5595
ltibia 26.0341
lfoot -10.5451 5.2817
ltoes 5.66565
561
root 0.426119 17.6582 -6.56072 12.0291 -0.740343 -2.00442
lowerback 5.36513 0.651254 0.00374571
upperback 5.24173 0.844983 1.24258
thorax 2.37111 0.398315 1.24889
lowerneck -13.1365 -0.212709 -1.00144
upperneck 29.6875 -0.466767 1.38931
head 11.9015 -0.143565 0.628083
rclavicle 1.3418e-015 1.39149e-015
rhumerus -30.8957 -0.993276 -85.1242
rradius 52.8755
rwrist 20.9432
rhand -25.8834 -25.3821
rfingers 7.12502
rthumb 0.658405 -55.3608
lclavicle 1.3418e-015 1.39149e-015
lhumerus -32.6835 -5.8239 87.6926
lradius 47.8586
lwrist 22.3243
lhand -30.5018 -9.57369
lfingers 7.12502
lthumb -3.80207 20.3721
rfemur -26.0424 -2.34207 19.6921
rtibia 27.1281
rfoot -12.1049 1.86305
rtoes 14.3213
lfemur -24.9606 7.17961 -18.5474
ltibia 25.9531
lfoot -10.5546 5.26933
ltoes 5.67366
562
root 0.427241 17.6594 -6.55374 11.9763 -0.749792 -2.00768
lowerback 5.31174 0.647437 0.024045
upperback 5.2262 0.840579 1.23039
thorax 2.38523 0.396981 1.22561
lowerneck -13.1278 -0.205931 -0.992361
upperneck 29.717 -0.460567 1.39151
head 11.9113 -0.139586 0.628361
rclavicle -6.01324e-015 -5.36719e-015
rhumerus -30.8314 -1.54288 -84.9565
rradius 51.2504
rwrist 21.2439
rhand -25.246 -25.431
rfingers 7.12502
rthumb 1.27401 -55.4069
lclavicle -6.01324e-015 -5.36719e-015
lhumerus -32.4474 -5.11889 87.475
lradius 46.0239
lwrist 22.3796
lhand -30.6238 -9.40644
lfingers 7.12502
lthumb -3.91987 20.5373
rfemur -25.9227 -2.3185 19.6848
rtibia 27.0633
rfoot -12.1105 1.83799
rtoes 14.2888
lfemur -24.8307 7.18537 -18.536
ltibia 25.8779
lfoot -10.5686 5.26416
ltoes 5.68501
563
root 0.428631 17.6606 -6.54671 11.9263 -0.758803 -2.01065
lowerback 5.25731 0.644045 0.0507638
upperback 5.21129 0.836923 1.21698
thorax 2.40069 0.396236 1.19748
lowerneck -13.1301 -0.198089 -0.989354
upperneck 29.7492 -0.45141 1.39462
head 11.9244 -0.134801 0.630473
rclavicle 1.2921e-015 4.87022e-015
rhumerus -30.7892 -2.08989 -84.7742
rradius 49.6642
rwrist 21.5144
rhand -24.6073 -25.5351
rfingers 7.12502
rthumb 1.89083 -55.5065
lclavicle 1.2921e-015 4.87022e-015
lhumerus -32.2539 -4.44283 87.254
lradius 44.2463
lwrist 22.4391
lhand -30.7314 -9.15863
lfingers 7.12502
lthumb -4.02374 20.7831
rfemur -25.8092 -2.30048 19.6775
rtibia 27.0048
rfoot -12.1201 1.81645
rtoes 14.2528
lfemur -24.7047 7.18701 -18.5265
ltibia 25.8059
lfoot -10.5858 5.26568
ltoes 5.69679
564
root 0.430038 17.6616 -6.53947 11.8792 -0.77187 -2.00439
lowerback 5.19852 0.640044 0.0674413
upperback 5.19631 0.832132 1.2014
thorax 2.41841 0.394646 1.17281
lowerneck -13.14 -0.188352 -0.98375
upperneck 29.7871 -0.438397 1.39172
head 11.9412 -0.128748 0.630472
rclavicle -1.51573e-014 -1.12313e-014
rhumerus -30.7743 -2.62484 -84.5806
rradius 48.1216
rwrist 21.7596
rhand -23.9678 -25.6736
rfingers 7.12502
rthumb 2.50847 -55.6386
lclavicle -1.51573e-014 -1.12313e-014
lhumerus -32.1075 -3.79702 87.0295
lradius 42.5431
lwrist 22.4839
lhand -30.8145 -8.84191
lfingers 7.12502
lthumb -4.10397 21.0983
rfemur -25.7034 -2.28585 19.6605
rtibia 26.955
rfoot -12.1342 1.79833
rtoes 14.2108
lfemur -24.5807 7.18721 -18.5283
ltibia 25.7348
lfoot -10.6045 5.27299
ltoes 5.70175
565
root 0.431396 17.6625 -6.53213 11.8345 -0.789415 -1.98967
lowerback 5.13782 0.636492 0.0763921
upperback 5.18074 0.827732 1.18254
thorax 2.43651 0.393073 1.14912
lowerneck -13.1507 -0.177714 -0.97825
upperneck 29.827 -0.423702 1.38759
head 11.9591 -0.122115 0.630281
rclavicle 3.18055e-015 2.98177e-015
rhumerus -30.7931 -3.15498 -84.3741
rradius 46.633
rwrist 21.9955
rhand -23.3202 -25.8184
rfingers 7.12502
rthumb 3.13391 -55.7751
lclavicle 3.18055e-015 2.98177e-015
lhumerus -32.0154 -3.19018 86.8007
lradius 40.9188
lwrist 22.4936
lhand -30.8431 -8.46446
lfingers 7.12502
lthumb -4.13159 21.4752
rfemur -25.6063 -2.27109 19.6345
rtibia 26.9163
rfoot -12.1525 1.78051
rtoes 14.171
lfemur -24.4582 7.19002 -18.5405
ltibia 25.6644
lfoot -10.625 5.28127
ltoes 5.7148
566
root 0.432531 17.6633 -6.52477 11.7912 -0.813392 -1.96455
lowerback 5.07552 0.633194 0.0724861
upperback 5.16692 0.823306 1.16059
thorax 2.45719 0.39113 1.12948
lowerneck -13.1554 -0.165761 -0.977427
upperneck 29.8604 -0.406561 1.38569
head 11.9731 -0.114675 0.632024
rclavicle -1.14301e-015 -1.09332e-015
rhumerus -30.8395 -3.68066 -84.1551
rradius 45.1969
rwrist 22.2411
rhand -22.6792 -25.9401
rfingers 7.12502
rthumb 3.75288 -55.8868
lclavicle -1.14301e-015 -1.09332e-015
lhumerus -31.9732 -2.63244 86.5694
lradius 39.3754
lwrist 22.4538
lhand -30.8223 -8.08842
lfingers 7.12502
lthumb -4.11157 21.8516
rfemur -25.5186 -2.25111 19.597
rtibia 26.8911
rfoot -12.1757 1.76012
rtoes 14.1253
lfemur -24.3378 7.19702 -18.5648
ltibia 25.5953
lfoot -10.645 5.28959
ltoes 5.72636
567
root 0.433315 17.6638 -6.5176 11.7497 -0.841821 -1.92996
lowerback 5.01387 0.630008 0.0556679
upperback 5.1539 0.818707 1.13615
thorax 2.47822 0.388741 1.1145
lowerneck -13.1558 -0.15319 -0.976401
upperneck 29.8904 -0.388132 1.38227
head 11.9848 -0.106858 0.633315
rclavicle 1.30204e-014 1.0138e-014
rhumerus -30.9151 -4.20386 -83.9245
rradius 43.8173
rwrist 22.5022
rhand -22.0555 -26.02
rfingers 7.12502
rthumb 4.35522 -55.9552
lclavicle 1.30204e-014 1.0138e-014
lhumerus -31.9796 -2.12332 86.3368
lradius 37.9081
lwrist 22.3467
lhand -30.7439 -7.75286
lfingers 7.12502
lthumb -4.03587 22.1887
rfemur -25.4415 -2.22181 19.5487
rtibia 26.8794
rfoot -12.2016 1.73238
rtoes 14.0748
lfemur -24.2225 7.20735 -18.5993
ltibia 25.5298
lfoot -10.664 5.29713
ltoes 5.73516
568
root 0.433762 17.6642 -6.51061 11.7076 -0.871508 -1.88959
lowerback 4.95455 0.626526 0.0301866
upperback 5.14311 0.813504 1.11134
thorax 2.50016 0.385776 1.10401
lowerneck -13.1494 -0.139663 -0.97654
upperneck 29.9159 -0.367349 1.37665
head 11.9933 -0.0984276 0.634274
rclavicle -1.49089e-016 -7.55382e-015
rhumerus -31.0184 -4.72643 -83.6798
rradius 42.4986
rwrist 22.7875
rhand -21.4473 -26.0551
rfingers 7.12502
rthumb 4.94244 -55.9775
lclavicle -1.49089e-016 -7.55382e-015
lhumerus -32.0296 -1.66639 86.1075
lradius 36.518
lwrist 22.166
lhand -30.6119 -7.44329
lfingers 7.12502
lthumb -3.90835 22.5006
rfemur -25.3713 -2.1824 19.4935
rtibia 26.8806
rfoot -12.2311 1.69364
rtoes 14.0188
lfemur -24.1106 7.21951 -18.6393
ltibia 25.469
lfoot -10.6821 5.30274
ltoes 5.74948
569
root 0.433968 17.6643 -6.50406 11.6658 -0.899725 -1.85015
lowerback 4.89846 0.623363 0.00482549
upperback 5.13564 0.808728 1.08831
thorax 2.52373 0.382978 1.09526
lowerneck -13.1465 -0.125438 -0.976718
upperneck 29.9444 -0.343817 1.36555
head 12.0037 -0.0894505 0.633594
rclavicle 2.98177e-015 6.55989e-015
rhumerus -31.1467 -5.25268 -83.418
rradius 41.2448
rwrist 23.1096
rhand -20.8275 -26.0993
rfingers 7.12502
rthumb 5.5409 -56.0068
lclavicle 2.98177e-015 6.55989e-015
lhumerus -32.1168 -1.26574 85.8872
lradius 35.2001
lwrist 21.908
lhand -30.4366 -7.18412
lfingers 7.12502
lthumb -3.73905 22.7628
rfemur -25.3078 -2.13261 19.4388
rtibia 26.8909
rfoot -12.2601 1.6434
rtoes 13.9637
lfemur -24.0054 7.23066 -18.6772
ltibia 25.4151
lfoot -10.6977 5.30893
ltoes 5.74845
570
root 0.433988 17.6641 -6.49784 11.6219 -0.923719 -1.81142
lowerback 4.84607 0.619548 -0.020228
upperback 5.1314 0.803097 1.06727
thorax 2.54859 0.379712 1.08839
lowerneck -13.1451 -0.110815 -0.975011
upperneck 29.9763 -0.319347 1.35165
head 12.0157 -0.0801884 0.6317
rclavicle 4.47266e-015 7.35503e-015
rhumerus -31.3066 -5.7739 -83.1414
rradius 40.0673
rwrist 23.4611
rhand -20.2239 -26.1507
rfingers 7.12502
rthumb 6.12361 -56.0422
lclavicle 4.47266e-015 7.35503e-015
lhumerus -32.2349 -0.91959 85.6773
lradius 33.955
lwrist 21.57
lhand -30.2065 -6.91981
lfingers 7.12502
lthumb -3.51692 23.0309
rfemur -25.2458 -2.07808 19.3849
rtibia 26.9075
rfoot -12.2893 1.58505
rtoes 13.909
lfemur -23.904 7.23581 -18.7123
ltibia 25.3685
lfoot -10.7118 5.31844
ltoes 5.73922
571
root 0.434062 17.6638 -6.49226 11.5763 -0.941089 -1.78211
lowerback 4.802 0.61653 -0.0301482
upperback 5.1304 0.798919 1.04936
thorax 2.57232 0.377582 1.07615
lowerneck -13.1552 -0.0953811 -0.97276
upperneck 30.0206 -0.291984 1.33199
head 12.035 -0.0702486 0.62806
rclavicle -4.67144e-015 9.93923e-017
rhumerus -31.496 -6.29886 -82.8456
rradius 38.9716
rwrist 23.8559
rhand -19.6665 -26.1912
rfingers 7.12502
rthumb 6.66178 -56.0664
lclavicle -4.67144e-015 9.93923e-017
lhumerus -32.3795 -0.634683 85.4843
lradius 32.7837
lwrist 21.1438
lhand -29.9452 -6.58641
lfingers 7.12502
lthumb -3.26452 23.3683
rfemur -25.1853 -2.02096 19.3414
rtibia 26.9275
rfoot -12.3168 1.52126
rtoes 13.8583
lfemur -23.8085 7.23392 -18.7356
ltibia 25.3305
lfoot -10.7245 5.33194
ltoes 5.72711
